<svg xmlns="http://www.w3.org/2000/svg" xmlns:xlink="http://www.w3.org/1999/xlink" width="41" zoomAndPan="magnify" viewBox="0 0 30.75 33.749999" height="45" preserveAspectRatio="xMidYMid meet" version="1.0"><defs><clipPath id="70a95911b1"><path d="M 0 0.0117188 L 30.503906 0.0117188 L 30.503906 33.488281 L 0 33.488281 Z M 0 0.0117188 " clip-rule="nonzero"/></clipPath><clipPath id="8a50fbd46f"><path d="M 9 0.539062 L 19 0.539062 L 19 33 L 9 33 Z M 9 0.539062 " clip-rule="nonzero"/></clipPath><clipPath id="14ea6cd896"><path d="M 9 0.539062 L 20 0.539062 L 20 33.273438 L 9 33.273438 Z M 9 0.539062 " clip-rule="nonzero"/></clipPath><clipPath id="fd4230d2c9"><path d="M 9 0.539062 L 19 0.539062 L 19 33 L 9 33 Z M 9 0.539062 " clip-rule="nonzero"/></clipPath><clipPath id="683e6e0f9a"><path d="M 18 15 L 29.015625 15 L 29.015625 25 L 18 25 Z M 18 15 " clip-rule="nonzero"/></clipPath><clipPath id="958e5a172c"><path d="M 0 0.0117188 L 30.503906 0.0117188 L 30.503906 33.488281 L 0 33.488281 Z M 0 0.0117188 " clip-rule="nonzero"/></clipPath></defs><g clip-path="url(#70a95911b1)"><path fill="#ffffff" d="M 0 0.0117188 L 30.503906 0.0117188 L 30.503906 33.488281 L 0 33.488281 Z M 0 0.0117188 " fill-opacity="1" fill-rule="nonzero"/><path fill="#ffffff" d="M 0 0.0117188 L 30.503906 0.0117188 L 30.503906 33.488281 L 0 33.488281 Z M 0 0.0117188 " fill-opacity="1" fill-rule="nonzero"/></g><path fill="#ebc21c" d="M 2.691406 8.082031 C 2.691406 9.40625 3.75 10.476562 5.054688 10.476562 C 6.359375 10.476562 7.421875 9.410156 7.421875 8.085938 C 7.421875 6.765625 6.363281 5.695312 5.058594 5.695312 C 3.753906 5.691406 2.695312 6.761719 2.691406 8.082031 " fill-opacity="1" fill-rule="nonzero"/><path fill="#ebc21c" d="M 5.414062 5.488281 L 4.707031 5.488281 L 4.707031 2.972656 L 5.414062 2.972656 L 5.414062 5.488281 " fill-opacity="1" fill-rule="nonzero"/><path fill="#ebc21c" d="M 5.40625 13.195312 L 4.699219 13.195312 L 4.703125 10.683594 L 5.40625 10.683594 L 5.40625 13.195312 " fill-opacity="1" fill-rule="nonzero"/><path fill="#ebc21c" d="M 4.082031 5.65625 L 3.46875 6.011719 L 2.230469 3.835938 L 2.839844 3.480469 L 4.082031 5.65625 " fill-opacity="1" fill-rule="nonzero"/><path fill="#ebc21c" d="M 7.886719 12.335938 L 7.273438 12.691406 L 6.035156 10.515625 L 6.644531 10.15625 L 7.886719 12.335938 " fill-opacity="1" fill-rule="nonzero"/><path fill="#ebc21c" d="M 3.011719 6.476562 L 2.65625 7.09375 L 0.507812 5.835938 L 0.859375 5.21875 L 3.011719 6.476562 " fill-opacity="1" fill-rule="nonzero"/><path fill="#ebc21c" d="M 9.605469 10.335938 L 9.253906 10.953125 L 7.101562 9.695312 L 7.457031 9.078125 L 9.605469 10.335938 " fill-opacity="1" fill-rule="nonzero"/><path fill="#ebc21c" d="M 2.488281 7.726562 L 2.488281 8.441406 L 0.00390625 8.4375 L 0.00390625 7.722656 L 2.488281 7.726562 " fill-opacity="1" fill-rule="nonzero"/><path fill="#ebc21c" d="M 10.109375 7.730469 L 10.109375 8.445312 L 7.625 8.445312 L 7.625 7.730469 L 10.109375 7.730469 " fill-opacity="1" fill-rule="nonzero"/><path fill="#ebc21c" d="M 2.65625 9.074219 L 3.007812 9.691406 L 0.855469 10.945312 L 0.503906 10.328125 L 2.65625 9.074219 " fill-opacity="1" fill-rule="nonzero"/><path fill="#ebc21c" d="M 9.257812 5.222656 L 9.609375 5.84375 L 7.457031 7.097656 L 7.105469 6.480469 L 9.257812 5.222656 " fill-opacity="1" fill-rule="nonzero"/><path fill="#ebc21c" d="M 3.464844 10.15625 L 4.078125 10.511719 L 2.832031 12.6875 L 2.222656 12.332031 L 3.464844 10.15625 " fill-opacity="1" fill-rule="nonzero"/><path fill="#ebc21c" d="M 7.28125 3.480469 L 7.890625 3.839844 L 6.648438 6.015625 L 6.039062 5.65625 L 7.28125 3.480469 " fill-opacity="1" fill-rule="nonzero"/><g clip-path="url(#8a50fbd46f)"><path fill="#ee2e32" d="M 14.34375 32.9375 C 11.78125 32.9375 9.695312 30.828125 9.695312 28.234375 C 9.695312 27.347656 9.9375 26.488281 10.402344 25.738281 C 10.792969 25.109375 11.332031 24.574219 11.964844 24.191406 L 12.085938 24.117188 L 12.085938 3.289062 C 12.085938 2.609375 12.320312 1.992188 12.746094 1.550781 C 13.164062 1.121094 13.730469 0.882812 14.34375 0.882812 C 14.957031 0.882812 15.523438 1.117188 15.941406 1.550781 C 16.367188 1.992188 16.601562 2.609375 16.601562 3.289062 L 16.601562 24.117188 L 16.71875 24.191406 C 17.351562 24.570312 17.894531 25.109375 18.285156 25.738281 C 18.746094 26.484375 18.992188 27.347656 18.992188 28.234375 C 18.992188 30.828125 16.90625 32.9375 14.34375 32.9375 " fill-opacity="1" fill-rule="nonzero"/></g><g clip-path="url(#14ea6cd896)"><path fill="#ee2e32" d="M 14.34375 33.277344 C 11.59375 33.277344 9.359375 31.015625 9.359375 28.234375 C 9.359375 27.285156 9.621094 26.359375 10.113281 25.558594 C 10.523438 24.894531 11.089844 24.332031 11.75 23.925781 L 11.75 3.289062 C 11.75 2.519531 12.015625 1.820312 12.503906 1.3125 C 12.984375 0.816406 13.640625 0.539062 14.34375 0.539062 C 15.046875 0.539062 15.699219 0.816406 16.179688 1.3125 C 16.667969 1.816406 16.9375 2.519531 16.9375 3.289062 L 16.9375 23.925781 C 17.597656 24.332031 18.160156 24.894531 18.570312 25.558594 C 19.066406 26.359375 19.328125 27.285156 19.328125 28.234375 C 19.328125 31.015625 17.09375 33.277344 14.34375 33.277344 " fill-opacity="1" fill-rule="nonzero"/><path fill="#ffffff" d="M 14.34375 33.082031 C 11.699219 33.082031 9.550781 30.90625 9.550781 28.234375 C 9.550781 27.320312 9.800781 26.433594 10.277344 25.660156 C 10.691406 24.992188 11.265625 24.433594 11.941406 24.035156 L 11.941406 3.289062 C 11.941406 2.570312 12.191406 1.917969 12.644531 1.449219 C 13.085938 0.988281 13.691406 0.734375 14.34375 0.734375 C 14.996094 0.734375 15.597656 0.988281 16.042969 1.449219 C 16.496094 1.917969 16.746094 2.570312 16.746094 3.289062 L 16.746094 24.035156 C 17.421875 24.433594 17.992188 24.992188 18.40625 25.660156 C 18.882812 26.433594 19.136719 27.320312 19.136719 28.234375 C 19.136719 30.90625 16.984375 33.082031 14.34375 33.082031 " fill-opacity="1" fill-rule="nonzero"/></g><g clip-path="url(#fd4230d2c9)"><path fill="#51abe4" d="M 18.941406 28.234375 C 18.941406 30.800781 16.878906 32.886719 14.34375 32.886719 C 11.808594 32.886719 9.742188 30.800781 9.742188 28.234375 C 9.742188 27.355469 9.984375 26.503906 10.441406 25.765625 C 10.859375 25.089844 11.445312 24.53125 12.132812 24.148438 L 12.132812 3.289062 C 12.132812 2.621094 12.363281 2.015625 12.78125 1.585938 C 13.1875 1.164062 13.742188 0.929688 14.34375 0.929688 C 14.945312 0.929688 15.5 1.164062 15.90625 1.585938 C 16.324219 2.015625 16.550781 2.621094 16.550781 3.289062 L 16.550781 24.148438 C 17.242188 24.53125 17.824219 25.089844 18.246094 25.765625 C 18.703125 26.503906 18.941406 27.355469 18.941406 28.234375 " fill-opacity="1" fill-rule="nonzero"/></g><path fill="#ffffff" d="M 14.34375 32.640625 C 11.941406 32.640625 9.984375 30.664062 9.984375 28.234375 C 9.984375 27.40625 10.214844 26.597656 10.648438 25.894531 C 11.042969 25.257812 11.597656 24.726562 12.25 24.367188 L 12.378906 24.296875 L 12.378906 3.289062 C 12.378906 2.6875 12.582031 2.144531 12.953125 1.757812 C 13.316406 1.382812 13.808594 1.175781 14.34375 1.175781 C 14.878906 1.175781 15.371094 1.382812 15.730469 1.757812 C 16.105469 2.144531 16.308594 2.6875 16.308594 3.289062 L 16.308594 24.296875 L 16.4375 24.367188 C 17.089844 24.726562 17.644531 25.257812 18.039062 25.894531 C 18.472656 26.59375 18.699219 27.402344 18.699219 28.234375 C 18.699219 30.664062 16.746094 32.640625 14.34375 32.640625 " fill-opacity="1" fill-rule="nonzero"/><path fill="#51abe4" d="M 15.238281 25.085938 L 15.238281 5.675781 L 13.449219 5.675781 L 13.449219 25.085938 C 12.074219 25.480469 11.066406 26.757812 11.066406 28.273438 C 11.066406 30.105469 12.535156 31.589844 14.34375 31.589844 C 16.152344 31.589844 17.621094 30.105469 17.621094 28.273438 C 17.621094 26.757812 16.613281 25.480469 15.238281 25.085938 " fill-opacity="1" fill-rule="nonzero"/><path fill="#ee2e32" d="M 14.34375 5.675781 L 13.449219 5.675781 L 13.449219 25.085938 C 12.058594 25.480469 11.050781 26.757812 11.050781 28.273438 C 11.050781 30.097656 12.523438 31.578125 14.34375 31.589844 L 14.34375 5.675781 " fill-opacity="1" fill-rule="nonzero"/><path fill="#9bdae6" d="M 15.238281 17.300781 L 14.34375 17.300781 L 14.34375 5.675781 L 15.238281 5.675781 L 15.238281 17.300781 " fill-opacity="1" fill-rule="nonzero"/><path fill="#ffffff" d="M 14.726562 6.253906 L 13.992188 6.253906 L 13.992188 6.03125 L 14.726562 6.035156 L 14.726562 6.253906 " fill-opacity="1" fill-rule="nonzero"/><path fill="#ffffff" d="M 14.71875 10.910156 L 13.984375 10.910156 L 13.984375 10.6875 L 14.71875 10.691406 L 14.71875 10.910156 " fill-opacity="1" fill-rule="nonzero"/><path fill="#ffffff" d="M 14.710938 15.542969 L 13.976562 15.539062 L 13.976562 15.320312 L 14.710938 15.320312 L 14.710938 15.542969 " fill-opacity="1" fill-rule="nonzero"/><path fill="#ffffff" d="M 14.703125 20.03125 L 13.96875 20.03125 L 13.96875 19.808594 L 14.703125 19.8125 L 14.703125 20.03125 " fill-opacity="1" fill-rule="nonzero"/><path fill="#ffffff" d="M 14.695312 24.828125 L 13.960938 24.824219 L 13.960938 24.605469 L 14.695312 24.605469 L 14.695312 24.828125 " fill-opacity="1" fill-rule="nonzero"/><path fill="#ffffff" d="M 14.425781 7.074219 L 14 7.074219 L 14 6.902344 L 14.425781 6.902344 L 14.425781 7.074219 " fill-opacity="1" fill-rule="nonzero"/><path fill="#ffffff" d="M 14.421875 8.003906 L 14 8 L 14 7.832031 L 14.421875 7.832031 L 14.421875 8.003906 " fill-opacity="1" fill-rule="nonzero"/><path fill="#ffffff" d="M 14.421875 8.929688 L 13.996094 8.929688 L 13.996094 8.761719 L 14.421875 8.761719 L 14.421875 8.929688 " fill-opacity="1" fill-rule="nonzero"/><path fill="#ffffff" d="M 14.417969 9.859375 L 13.996094 9.859375 L 13.996094 9.6875 L 14.421875 9.691406 L 14.417969 9.859375 " fill-opacity="1" fill-rule="nonzero"/><path fill="#ffffff" d="M 14.417969 11.714844 L 13.992188 11.714844 L 13.992188 11.546875 L 14.417969 11.546875 L 14.417969 11.714844 " fill-opacity="1" fill-rule="nonzero"/><path fill="#ffffff" d="M 14.414062 12.644531 L 13.992188 12.644531 L 13.992188 12.472656 L 14.414062 12.476562 L 14.414062 12.644531 " fill-opacity="1" fill-rule="nonzero"/><path fill="#ffffff" d="M 14.414062 13.574219 L 13.988281 13.574219 L 13.988281 13.402344 L 14.414062 13.402344 L 14.414062 13.574219 " fill-opacity="1" fill-rule="nonzero"/><path fill="#ffffff" d="M 14.410156 14.5 L 13.988281 14.5 L 13.988281 14.332031 L 14.414062 14.332031 L 14.410156 14.5 " fill-opacity="1" fill-rule="nonzero"/><path fill="#ffffff" d="M 14.410156 16.425781 L 13.984375 16.425781 L 13.984375 16.253906 L 14.410156 16.257812 L 14.410156 16.425781 " fill-opacity="1" fill-rule="nonzero"/><path fill="#ffffff" d="M 14.40625 17.289062 L 13.984375 17.285156 L 13.984375 17.117188 L 14.40625 17.117188 L 14.40625 17.289062 " fill-opacity="1" fill-rule="nonzero"/><path fill="#ffffff" d="M 14.40625 18.214844 L 13.980469 18.214844 L 13.980469 18.046875 L 14.40625 18.046875 L 14.40625 18.214844 " fill-opacity="1" fill-rule="nonzero"/><path fill="#ffffff" d="M 14.402344 19.144531 L 13.980469 19.144531 L 13.980469 18.972656 L 14.40625 18.976562 L 14.402344 19.144531 " fill-opacity="1" fill-rule="nonzero"/><path fill="#ffffff" d="M 14.402344 20.859375 L 13.976562 20.855469 L 13.976562 20.6875 L 14.402344 20.6875 L 14.402344 20.859375 " fill-opacity="1" fill-rule="nonzero"/><path fill="#ffffff" d="M 14.398438 21.90625 L 13.976562 21.90625 L 13.976562 21.734375 L 14.398438 21.734375 L 14.398438 21.90625 " fill-opacity="1" fill-rule="nonzero"/><path fill="#ffffff" d="M 14.398438 22.847656 L 13.972656 22.84375 L 13.972656 22.675781 L 14.398438 22.675781 L 14.398438 22.847656 " fill-opacity="1" fill-rule="nonzero"/><path fill="#ffffff" d="M 14.394531 23.839844 L 13.972656 23.835938 L 13.972656 23.667969 L 14.398438 23.667969 L 14.394531 23.839844 " fill-opacity="1" fill-rule="nonzero"/><g clip-path="url(#683e6e0f9a)"><path fill="#51abe4" d="M 23.582031 20.367188 C 23.324219 20.222656 23.234375 19.894531 23.375 19.636719 C 23.519531 19.378906 23.84375 19.285156 24.097656 19.429688 C 24.355469 19.574219 24.445312 19.902344 24.304688 20.160156 C 24.160156 20.417969 23.835938 20.511719 23.582031 20.367188 Z M 26.523438 24.179688 L 25.976562 23.253906 L 26.59375 23.410156 C 26.683594 23.433594 26.773438 23.378906 26.792969 23.289062 C 26.816406 23.203125 26.761719 23.109375 26.675781 23.089844 L 25.738281 22.851562 L 25.21875 21.96875 L 26.816406 22.378906 C 26.90625 22.398438 26.996094 22.347656 27.015625 22.257812 C 27.039062 22.167969 26.984375 22.078125 26.898438 22.054688 L 24.980469 21.566406 L 24.390625 20.5625 C 24.46875 20.496094 24.535156 20.417969 24.589844 20.320312 C 24.632812 20.242188 24.660156 20.164062 24.679688 20.078125 L 25.871094 20.0625 L 27.230469 21.398438 C 27.242188 21.410156 27.253906 21.417969 27.265625 21.425781 C 27.328125 21.460938 27.410156 21.449219 27.464844 21.394531 C 27.527344 21.332031 27.527344 21.226562 27.460938 21.160156 L 26.335938 20.054688 L 27.363281 20.039062 L 28.035156 20.703125 C 28.042969 20.710938 28.054688 20.71875 28.066406 20.726562 C 28.132812 20.761719 28.210938 20.753906 28.265625 20.699219 C 28.328125 20.632812 28.328125 20.527344 28.261719 20.464844 L 27.824219 20.035156 L 28.851562 20.019531 C 28.941406 20.019531 29.015625 19.941406 29.011719 19.851562 C 29.011719 19.757812 28.9375 19.6875 28.847656 19.6875 L 27.78125 19.703125 L 28.222656 19.238281 C 28.289062 19.175781 28.285156 19.070312 28.222656 19.003906 C 28.15625 18.941406 28.050781 18.941406 27.988281 19.007812 L 27.316406 19.710938 L 26.304688 19.722656 L 27.449219 18.527344 C 27.515625 18.464844 27.511719 18.359375 27.449219 18.292969 C 27.382812 18.230469 27.277344 18.230469 27.214844 18.296875 L 25.839844 19.730469 L 24.683594 19.746094 C 24.652344 19.5625 24.558594 19.386719 24.414062 19.253906 L 24.996094 18.199219 L 26.820312 17.675781 C 26.910156 17.652344 26.960938 17.558594 26.933594 17.472656 C 26.910156 17.382812 26.820312 17.332031 26.730469 17.355469 L 25.222656 17.789062 L 25.722656 16.882812 L 26.625 16.625 C 26.710938 16.601562 26.761719 16.507812 26.738281 16.421875 C 26.714844 16.332031 26.621094 16.28125 26.535156 16.304688 L 25.949219 16.472656 L 26.449219 15.570312 C 26.492188 15.488281 26.464844 15.386719 26.386719 15.34375 C 26.304688 15.296875 26.207031 15.328125 26.164062 15.40625 L 25.644531 16.347656 L 25.46875 15.726562 C 25.445312 15.640625 25.355469 15.589844 25.265625 15.613281 C 25.179688 15.636719 25.128906 15.730469 25.152344 15.816406 L 25.417969 16.757812 L 24.921875 17.652344 L 24.472656 16.050781 C 24.449219 15.960938 24.359375 15.910156 24.269531 15.933594 C 24.183594 15.960938 24.132812 16.050781 24.15625 16.140625 L 24.695312 18.0625 L 24.132812 19.082031 C 23.949219 19.015625 23.753906 19.015625 23.578125 19.070312 L 22.964844 18.035156 L 23.429688 16.175781 C 23.453125 16.085938 23.398438 15.996094 23.308594 15.972656 C 23.222656 15.953125 23.132812 16.003906 23.109375 16.09375 L 22.726562 17.632812 L 22.203125 16.742188 L 22.429688 15.820312 C 22.453125 15.734375 22.398438 15.640625 22.3125 15.621094 C 22.222656 15.597656 22.136719 15.652344 22.113281 15.742188 L 21.964844 16.339844 L 21.4375 15.445312 C 21.390625 15.367188 21.289062 15.34375 21.214844 15.390625 C 21.136719 15.4375 21.109375 15.539062 21.15625 15.617188 L 21.703125 16.542969 L 21.085938 16.386719 C 20.996094 16.363281 20.90625 16.417969 20.886719 16.503906 C 20.867188 16.578125 20.902344 16.65625 20.964844 16.691406 C 20.976562 16.699219 20.988281 16.703125 21.003906 16.707031 L 21.941406 16.945312 L 22.460938 17.828125 L 20.863281 17.417969 C 20.773438 17.394531 20.683594 17.449219 20.664062 17.539062 C 20.644531 17.613281 20.679688 17.6875 20.742188 17.722656 C 20.753906 17.730469 20.769531 17.738281 20.78125 17.742188 L 22.699219 18.230469 L 23.289062 19.230469 C 23.210938 19.296875 23.144531 19.378906 23.089844 19.476562 C 23.046875 19.550781 23.019531 19.632812 23 19.714844 L 21.808594 19.734375 L 20.449219 18.394531 C 20.382812 18.332031 20.277344 18.332031 20.214844 18.398438 C 20.152344 18.464844 20.152344 18.570312 20.21875 18.632812 L 21.34375 19.738281 L 20.316406 19.753906 L 19.644531 19.09375 C 19.582031 19.03125 19.476562 19.03125 19.414062 19.097656 C 19.351562 19.164062 19.351562 19.269531 19.417969 19.332031 L 19.855469 19.761719 L 18.828125 19.777344 C 18.738281 19.777344 18.667969 19.851562 18.667969 19.945312 C 18.667969 20.007812 18.703125 20.058594 18.75 20.085938 C 18.777344 20.101562 18.804688 20.109375 18.835938 20.109375 L 19.898438 20.09375 L 19.457031 20.554688 C 19.390625 20.621094 19.394531 20.726562 19.457031 20.789062 C 19.46875 20.800781 19.480469 20.808594 19.492188 20.816406 C 19.554688 20.851562 19.636719 20.84375 19.691406 20.785156 L 20.363281 20.085938 L 21.375 20.070312 L 20.230469 21.265625 C 20.164062 21.332031 20.167969 21.4375 20.230469 21.5 C 20.242188 21.511719 20.253906 21.519531 20.265625 21.527344 C 20.328125 21.5625 20.410156 21.554688 20.464844 21.5 L 21.839844 20.066406 L 22.996094 20.046875 C 23.027344 20.234375 23.121094 20.410156 23.265625 20.542969 L 22.683594 21.597656 L 20.859375 22.121094 C 20.769531 22.144531 20.722656 22.234375 20.746094 22.324219 C 20.769531 22.414062 20.859375 22.464844 20.949219 22.4375 L 22.457031 22.007812 L 21.957031 22.910156 L 21.054688 23.171875 C 20.96875 23.195312 20.917969 23.289062 20.941406 23.375 C 20.953125 23.417969 20.984375 23.453125 21.019531 23.476562 C 21.054688 23.496094 21.101562 23.503906 21.144531 23.488281 L 21.730469 23.320312 L 21.230469 24.226562 C 21.1875 24.308594 21.214844 24.410156 21.292969 24.453125 C 21.375 24.5 21.472656 24.46875 21.515625 24.390625 L 22.035156 23.449219 L 22.210938 24.070312 C 22.234375 24.15625 22.324219 24.207031 22.414062 24.183594 C 22.5 24.15625 22.550781 24.066406 22.527344 23.976562 L 22.261719 23.039062 L 22.757812 22.144531 L 23.207031 23.746094 C 23.21875 23.789062 23.246094 23.824219 23.285156 23.847656 C 23.320312 23.867188 23.367188 23.875 23.410156 23.859375 C 23.496094 23.835938 23.546875 23.742188 23.523438 23.65625 L 22.984375 21.734375 L 23.546875 20.714844 C 23.730469 20.78125 23.925781 20.78125 24.105469 20.722656 L 24.714844 21.761719 L 24.25 23.621094 C 24.230469 23.695312 24.265625 23.769531 24.328125 23.804688 C 24.34375 23.8125 24.355469 23.820312 24.371094 23.820312 C 24.457031 23.84375 24.546875 23.789062 24.570312 23.703125 L 24.953125 22.164062 L 25.476562 23.054688 L 25.25 23.972656 C 25.230469 24.046875 25.265625 24.125 25.328125 24.160156 C 25.339844 24.167969 25.355469 24.171875 25.367188 24.175781 C 25.457031 24.199219 25.542969 24.144531 25.566406 24.054688 L 25.714844 23.457031 L 26.242188 24.347656 C 26.257812 24.375 26.277344 24.394531 26.300781 24.410156 C 26.351562 24.4375 26.414062 24.4375 26.464844 24.40625 C 26.542969 24.359375 26.570312 24.257812 26.523438 24.179688 " fill-opacity="1" fill-rule="nonzero"/></g><path fill="#51abe4" d="M 23.464844 18.085938 L 23.6875 18.476562 C 23.703125 18.503906 23.726562 18.523438 23.75 18.539062 C 23.777344 18.554688 23.804688 18.558594 23.832031 18.558594 C 23.890625 18.558594 23.945312 18.527344 23.976562 18.472656 L 24.210938 18.039062 C 24.230469 18 24.234375 17.957031 24.222656 17.914062 L 23.996094 17.125 C 23.976562 17.054688 23.910156 17.007812 23.839844 17.007812 C 23.765625 17.007812 23.699219 17.058594 23.679688 17.128906 L 23.449219 17.957031 C 23.4375 18 23.441406 18.046875 23.464844 18.085938 " fill-opacity="1" fill-rule="nonzero"/><path fill="#51abe4" d="M 21.984375 19.269531 C 21.996094 19.28125 22.007812 19.292969 22.019531 19.300781 C 22.046875 19.3125 22.074219 19.320312 22.101562 19.320312 L 22.546875 19.320312 C 22.609375 19.320312 22.660156 19.289062 22.691406 19.234375 C 22.71875 19.183594 22.71875 19.117188 22.6875 19.066406 L 22.433594 18.644531 C 22.410156 18.605469 22.375 18.578125 22.332031 18.570312 L 21.546875 18.375 C 21.476562 18.359375 21.402344 18.390625 21.363281 18.453125 C 21.328125 18.519531 21.339844 18.597656 21.390625 18.652344 L 21.984375 19.269531 " fill-opacity="1" fill-rule="nonzero"/><path fill="#51abe4" d="M 21.367188 21.34375 C 21.382812 21.371094 21.402344 21.390625 21.429688 21.40625 C 21.464844 21.425781 21.507812 21.433594 21.546875 21.421875 L 22.375 21.210938 C 22.417969 21.199219 22.453125 21.171875 22.476562 21.132812 L 22.699219 20.742188 C 22.726562 20.6875 22.726562 20.625 22.699219 20.574219 C 22.667969 20.519531 22.613281 20.492188 22.554688 20.492188 L 22.0625 20.503906 C 22.019531 20.503906 21.980469 20.523438 21.949219 20.554688 L 21.390625 21.148438 C 21.339844 21.199219 21.328125 21.28125 21.367188 21.34375 " fill-opacity="1" fill-rule="nonzero"/><path fill="#51abe4" d="M 24.214844 21.710938 L 23.992188 21.320312 C 23.960938 21.265625 23.90625 21.234375 23.847656 21.234375 C 23.789062 21.238281 23.734375 21.269531 23.703125 21.324219 L 23.46875 21.757812 C 23.449219 21.792969 23.445312 21.839844 23.457031 21.882812 L 23.683594 22.667969 C 23.695312 22.710938 23.722656 22.746094 23.761719 22.769531 C 23.785156 22.78125 23.8125 22.789062 23.839844 22.789062 C 23.914062 22.789062 23.980469 22.738281 24 22.667969 L 24.230469 21.839844 C 24.242188 21.796875 24.238281 21.75 24.214844 21.710938 " fill-opacity="1" fill-rule="nonzero"/><path fill="#51abe4" d="M 25.695312 20.527344 C 25.664062 20.492188 25.625 20.476562 25.578125 20.476562 L 25.132812 20.476562 C 25.074219 20.476562 25.019531 20.507812 24.988281 20.5625 C 24.960938 20.613281 24.960938 20.675781 24.992188 20.726562 L 25.246094 21.152344 C 25.261719 21.175781 25.28125 21.195312 25.304688 21.210938 C 25.320312 21.21875 25.332031 21.222656 25.347656 21.226562 L 26.132812 21.421875 C 26.203125 21.4375 26.277344 21.40625 26.316406 21.34375 C 26.351562 21.277344 26.339844 21.195312 26.289062 21.144531 L 25.695312 20.527344 " fill-opacity="1" fill-rule="nonzero"/><path fill="#51abe4" d="M 26.3125 18.453125 C 26.277344 18.386719 26.203125 18.355469 26.132812 18.375 L 25.304688 18.585938 C 25.261719 18.597656 25.226562 18.625 25.203125 18.664062 L 24.980469 19.054688 C 24.953125 19.105469 24.953125 19.171875 24.980469 19.222656 C 24.996094 19.25 25.019531 19.269531 25.042969 19.28125 C 25.066406 19.296875 25.097656 19.304688 25.125 19.304688 L 25.617188 19.292969 C 25.660156 19.292969 25.699219 19.273438 25.730469 19.242188 L 26.289062 18.648438 C 26.339844 18.597656 26.351562 18.515625 26.3125 18.453125 " fill-opacity="1" fill-rule="nonzero"/><g clip-path="url(#958e5a172c)"><path fill="#1d1d1b" d="M 30.410156 -7.402344 L 30.1875 -7.402344 L 30.1875 -7.738281 C 30.1875 -7.808594 30.148438 -7.863281 30.101562 -7.863281 L 0.363281 -7.863281 C 0.3125 -7.863281 0.273438 -7.808594 0.273438 -7.738281 L 0.273438 -7.402344 L 0.0898438 -7.402344 C 0.0429688 -7.402344 0 -7.347656 0 -7.277344 L 0 34.367188 C 0 34.4375 0.0429688 34.492188 0.0898438 34.492188 L 30.410156 34.492188 C 30.460938 34.492188 30.5 34.4375 30.5 34.367188 L 30.5 -7.277344 C 30.5 -7.347656 30.460938 -7.402344 30.410156 -7.402344 Z M 30.011719 -7.613281 L 30.011719 -7.402344 L 0.761719 -7.402344 L 0.761719 -7.613281 Z M 0.453125 33.78125 L 0.453125 -7.152344 L 0.585938 -7.152344 L 0.585938 33.78125 Z M 0.761719 -7.152344 L 29.738281 -7.152344 L 29.738281 33.78125 L 0.761719 33.78125 Z M 29.917969 -7.152344 L 30.011719 -7.152344 L 30.011719 33.78125 L 29.917969 33.78125 Z M 0.453125 -7.613281 L 0.585938 -7.613281 L 0.585938 -7.402344 L 0.453125 -7.402344 Z M 0.179688 -7.152344 L 0.273438 -7.152344 L 0.273438 33.90625 C 0.273438 33.976562 0.3125 34.03125 0.363281 34.03125 L 0.585938 34.03125 L 0.585938 34.246094 L 0.179688 34.246094 Z M 0.761719 34.246094 L 0.761719 34.03125 L 29.738281 34.03125 L 29.738281 34.246094 Z M 30.324219 34.246094 L 29.917969 34.246094 L 29.917969 34.03125 L 30.101562 34.03125 C 30.148438 34.03125 30.1875 33.976562 30.1875 33.90625 L 30.1875 -7.152344 L 30.324219 -7.152344 Z M 30.324219 34.246094 " fill-opacity="1" fill-rule="nonzero"/></g></svg>